<?xml version="1.0" encoding="UTF-8" standalone="no"?>
<svg
   class="svg-icon"
   width="100"
   height="100"
   viewBox="0.1 0 1051.535 1051.535"
   version="1.1"
   id="svg72"
   sodipodi:docname="blockchain.svg"
   inkscape:version="1.1.2 (0a00cf5339, 2022-02-04)"
   xmlns:inkscape="http://www.inkscape.org/namespaces/inkscape"
   xmlns:sodipodi="http://sodipodi.sourceforge.net/DTD/sodipodi-0.dtd"
   xmlns="http://www.w3.org/2000/svg"
   xmlns:svg="http://www.w3.org/2000/svg">
  <defs
     id="defs76" />
  <sodipodi:namedview
     id="namedview74"
     pagecolor="#ffffff"
     bordercolor="#666666"
     borderopacity="1.0"
     inkscape:pageshadow="2"
     inkscape:pageopacity="0.0"
     inkscape:pagecheckerboard="0"
     showgrid="false"
     scale-x="10.51535"
     viewbox-width="935.48092"
     fit-margin-top="0"
     fit-margin-left="0"
     fit-margin-right="0"
     fit-margin-bottom="0"
     inkscape:zoom="1.4019578"
     inkscape:cx="168.33602"
     inkscape:cy="150.14717"
     inkscape:window-width="1920"
     inkscape:window-height="1013"
     inkscape:window-x="0"
     inkscape:window-y="0"
     inkscape:window-maximized="1"
     inkscape:current-layer="svg72" />
  <path
     d="m 722.97672,542.5993 m -23.27273,0 a 23.272727,23.272727 0 1 0 46.54545,0 23.272727,23.272727 0 1 0 -46.54545,0 z"
     fill="#0b3a5b"
     id="path2" />
  <path
     d="m 350.61307,542.5993 m -23.27274,0 a 23.272735,23.272735 0 1 0 46.54547,0 23.272735,23.272735 0 1 0 -46.54547,0 z"
     fill="#0b3a5b"
     id="path4" />
  <path
     d="m 257.52215,705.5084 m -23.27273,0 a 23.27273,23.27273 0 1 0 46.54546,0 23.27273,23.27273 0 1 0 -46.54546,0 z"
     fill="#0b3a5b"
     id="path6" />
  <path
     d="m 816.06763,379.69021 m -23.27273,0 a 23.272727,23.272727 0 1 0 46.54545,0 23.272727,23.272727 0 1 0 -46.54545,0 z"
     fill="#0b3a5b"
     id="path8" />
  <path
     d="m 257.52215,263.32658 m -23.27273,0 a 23.27273,23.27273 0 1 0 46.54546,0 23.27273,23.27273 0 1 0 -46.54546,0 z"
     fill="#0b3a5b"
     id="path10" />
  <path
     d="m 187.70397,309.87203 m -23.27272,0 a 23.272728,23.272728 0 1 0 46.54545,0 23.272728,23.272728 0 1 0 -46.54545,0 z"
     fill="#0b3a5b"
     id="path12" />
  <path
     d="m 327.34033,216.78112 m -23.27273,0 a 23.272735,23.272735 0 1 0 46.54547,0 23.272735,23.272735 0 1 0 -46.54547,0 z"
     fill="#0b3a5b"
     id="path14" />
  <path
     d="m 420.43126,216.78112 m -23.27273,0 a 23.27273,23.27273 0 1 0 46.54546,0 23.27273,23.27273 0 1 0 -46.54546,0 z"
     fill="#0b3a5b"
     id="path16" />
  <path
     d="m 513.52217,216.78112 m -23.27273,0 a 23.27273,23.27273 0 1 0 46.54546,0 23.27273,23.27273 0 1 0 -46.54546,0 z"
     fill="#0b3a5b"
     id="path18" />
  <path
     d="m 816.06763,821.87203 m -23.27273,0 a 23.272727,23.272727 0 1 0 46.54545,0 23.272727,23.272727 0 1 0 -46.54545,0 z"
     fill="#0b3a5b"
     id="path20" />
  <path
     d="m 885.88581,775.32658 m -23.27273,0 a 23.272727,23.272727 0 1 0 46.54545,0 23.272727,23.272727 0 1 0 -46.54545,0 z"
     fill="#0b3a5b"
     id="path22" />
  <path
     d="m 746.24944,868.41749 m -23.27272,0 a 23.272727,23.272727 0 1 0 46.54545,0 23.272727,23.272727 0 1 0 -46.54545,0 z"
     fill="#0b3a5b"
     id="path24" />
  <path
     d="m 653.15853,868.41749 m -23.27272,0 a 23.272727,23.272727 0 1 0 46.54545,0 23.272727,23.272727 0 1 0 -46.54545,0 z"
     fill="#0b3a5b"
     id="path26" />
  <path
     d="m 560.06763,868.41749 m -23.27273,0 a 23.272727,23.272727 0 1 0 46.54545,0 23.272727,23.272727 0 1 0 -46.54545,0 z"
     fill="#0b3a5b"
     id="path28" />
  <path
     d="M 164.43125,682.23567 48.067635,612.41749 V 472.78112 L 164.43125,542.5993 Z"
     fill="#d3e2eb"
     id="path30" />
  <path
     d="M 722.97672,216.78112 606.61308,146.96294 722.97672,77.144765 839.34035,146.96294 Z"
     fill="#ffffff"
     id="path32" />
  <path
     d="M 722.97672,356.41749 606.61308,286.5993 V 146.96294 l 116.36364,69.81818 z"
     fill="#d3e2eb"
     id="path34" />
  <path
     d="M 722.97672,356.41749 839.34035,286.5993 V 146.96294 l -116.36363,69.81818 z"
     fill="#99b5cd"
     id="path36" />
  <path
     d="M 850.97672,126.01749 734.61308,56.199313 c -6.98182,-4.654545 -16.29091,-4.654545 -23.27273,0 L 594.97672,126.01749 c -6.98182,4.65454 -11.63637,11.63636 -11.63637,20.94545 V 286.5993 c 0,9.3091 4.65455,16.29091 11.63637,20.94546 l 116.36363,69.81818 c 2.32728,2.32727 6.98182,2.32727 11.63637,2.32727 4.65454,0 9.30909,0 11.63636,-2.32727 l 116.36364,-69.81818 c 6.98181,-4.65455 11.63636,-11.63636 11.63636,-20.94546 V 146.96294 c 0,-9.30909 -4.65454,-16.29091 -11.63636,-20.94545 z m -128,-20.94545 72.14545,41.8909 -72.14545,41.89091 -72.14546,-41.89091 z m -93.09091,83.78181 69.81818,41.89091 v 86.10909 l -69.81818,-41.89091 z m 116.36363,125.67273 v -83.78182 l 69.81819,-41.89091 v 86.10909 z"
     fill="#0b3a5b"
     id="path38" />
  <path
     d="M 909.15853,542.5993 792.7949,472.78112 909.15853,402.96294 1025.5222,472.78112 Z"
     fill="#ffffff"
     id="path40" />
  <path
     d="M 909.15853,682.23567 792.7949,612.41749 V 472.78112 l 116.36363,69.81818 z"
     fill="#d3e2eb"
     id="path42" />
  <path
     d="M 909.15853,682.23567 1025.5222,612.41749 V 472.78112 L 909.15853,542.5993 Z"
     fill="#99b5cd"
     id="path44" />
  <path
     d="M 1037.1585,451.83567 920.7949,382.01749 c -6.98182,-4.65455 -16.29091,-4.65455 -23.27273,0 l -116.36364,69.81818 c -6.98181,4.65454 -11.63636,11.63636 -11.63636,20.94545 v 139.63637 c 0,9.30909 4.65455,16.29091 11.63636,20.94545 l 116.36364,69.81818 c 2.32727,2.32728 6.98182,2.32728 11.63636,2.32728 4.65455,0 9.3091,0 11.63637,-2.32728 l 116.3636,-69.81818 c 6.9818,-4.65454 11.6364,-11.63636 11.6364,-20.94545 V 472.78112 c 0,-9.30909 -4.6546,-16.29091 -11.6364,-20.94545 z m -127.99997,-20.94546 72.14549,41.89091 -72.14549,41.89091 -72.14545,-41.89091 z m -93.0909,83.78182 69.81818,41.89091 v 86.10909 l -69.81818,-41.89091 z m 116.36363,125.67273 v -86.10909 l 69.81814,-41.89091 v 86.10909 z"
     fill="#0b3a5b"
     id="path46" />
  <path
     d="M 350.61307,868.41749 234.24942,798.5993 350.61307,728.78112 466.97672,798.5993 Z"
     fill="#ffffff"
     id="path48" />
  <path
     d="M 350.61307,1008.0538 234.24942,938.23567 V 798.5993 l 116.36365,69.81819 z"
     fill="#d3e2eb"
     id="path50" />
  <path
     d="M 350.61307,1008.0538 466.97672,938.23567 V 798.5993 l -116.36365,69.81819 z"
     fill="#99b5cd"
     id="path52" />
  <path
     d="M 478.61308,777.65385 362.24943,707.83567 c -6.98182,-4.65455 -16.29091,-4.65455 -23.27273,0 l -116.36364,69.81818 c -6.98182,4.65454 -11.63636,11.63636 -11.63636,20.94545 v 139.63637 c 0,9.30909 4.65454,16.29091 11.63636,20.94545 l 116.36364,69.81818 c 2.32727,2.3273 6.98182,2.3273 11.63637,2.3273 4.65454,0 9.30909,0 11.63636,-2.3273 l 116.36365,-69.81818 c 6.98182,-4.65454 11.63636,-11.63636 11.63636,-20.94545 V 798.5993 c 0,-9.30909 -4.65454,-16.2909 -11.63636,-20.94545 z M 350.61307,756.7084 422.75853,798.5993 350.61307,840.49021 278.4676,798.5993 Z m -93.09092,83.78181 69.81818,41.89091 v 86.10909 L 257.52215,926.5993 Z M 373.8858,966.16294 v -86.10909 l 69.81819,-41.89091 v 86.10909 z"
     fill="#0b3a5b"
     id="path54" />
  <path
     d="M 536.7949,542.5993 420.43126,472.78112 536.7949,402.96294 653.15853,472.78112 Z"
     fill="#90cef1"
     id="path56" />
  <path
     d="M 536.7949,682.23567 420.43126,612.41749 V 472.78112 L 536.7949,542.5993 Z"
     fill="#70b7e5"
     id="path58" />
  <path
     d="M 536.7949,682.23567 653.15853,612.41749 V 472.78112 L 536.7949,542.5993 Z"
     fill="#3689c9"
     id="path60" />
  <path
     d="M 664.7949,451.83567 548.43126,382.01749 c -6.98182,-4.65455 -16.29091,-4.65455 -23.27273,0 L 408.7949,451.83567 c -6.98182,4.65454 -11.63637,11.63636 -11.63637,20.94545 v 139.63637 c 0,9.30909 4.65455,16.29091 11.63637,20.94545 l 116.36363,69.81818 c 2.32728,2.32728 6.98182,2.32728 11.63637,2.32728 4.65454,0 9.30909,0 11.63636,-2.32728 L 664.7949,633.36294 c 6.98182,-4.65454 11.63636,-11.63636 11.63636,-20.94545 V 472.78112 c 0,-9.30909 -4.65454,-16.29091 -11.63636,-20.94545 z m -128,-20.94546 72.14545,41.89091 -72.14545,41.89091 -72.14546,-41.89091 z m -93.09091,83.78182 69.81818,41.89091 v 86.10909 l -69.81818,-41.89091 z m 116.36364,125.67273 v -86.10909 l 69.81818,-41.89091 v 86.10909 z"
     fill="#0b3a5b"
     id="path62" />
  <path
     d="M 164.43125,542.5993 48.067635,472.78112 164.43125,402.96294 280.79488,472.78112 Z"
     fill="#ffffff"
     id="path64" />
  <path
     d="M 164.43125,682.23567 48.067635,612.41749 V 472.78112 L 164.43125,542.5993 Z"
     fill="#d3e2eb"
     id="path66" />
  <path
     d="M 164.43125,682.23567 280.79488,612.41749 V 472.78112 L 164.43125,542.5993 Z"
     fill="#99b5cd"
     id="path68" />
  <path
     d="M 292.43124,451.83567 176.06761,382.01749 c -6.98181,-4.65455 -16.2909,-4.65455 -23.27272,0 L 36.431265,451.83567 c -6.98182,4.65454 -11.63636,11.63636 -11.63636,20.94545 v 139.63637 c 0,9.30909 4.65454,16.29091 11.63636,20.94545 l 116.363625,69.81818 c 2.32727,2.32728 6.98182,2.32728 11.63636,2.32728 4.65455,0 9.30908,0 11.63636,-2.32728 l 116.36363,-69.81818 c 6.98182,-4.65454 11.63637,-11.63636 11.63636,-20.94545 V 472.78112 c 0,-9.30909 -4.65454,-16.29091 -11.63636,-20.94545 z m -127.99999,-20.94546 72.14544,41.89091 -72.14544,41.89091 -72.145439,-41.89091 z m -93.090895,83.78182 69.818175,41.89091 v 86.10909 L 71.340355,600.78112 Z M 187.70397,640.34476 v -86.10909 l 69.81818,-41.89091 v 86.10909 z"
     fill="#0b3a5b"
     id="path70" />
</svg>
