<?xml version="1.0" encoding="UTF-8" standalone="no"?>
<svg
   version="1.0"
   width="100pt"
   height="101pt"
   viewBox="0 0 159.99999 161.60001"
   preserveAspectRatio="xMidYMid meet"
   id="svg28"
   sodipodi:docname="crowdsolving.svg"
   inkscape:version="1.1.2 (0a00cf5339, 2022-02-04)"
   xmlns:inkscape="http://www.inkscape.org/namespaces/inkscape"
   xmlns:sodipodi="http://sodipodi.sourceforge.net/DTD/sodipodi-0.dtd"
   xmlns="http://www.w3.org/2000/svg"
   xmlns:svg="http://www.w3.org/2000/svg">
  <defs
     id="defs32" />
  <sodipodi:namedview
     id="namedview30"
     pagecolor="#ffffff"
     bordercolor="#666666"
     borderopacity="1.0"
     inkscape:pageshadow="2"
     inkscape:pageopacity="0.0"
     inkscape:pagecheckerboard="0"
     inkscape:document-units="pt"
     showgrid="false"
     scale-x="1.6"
     inkscape:zoom="2.5575"
     inkscape:cx="95.40567"
     inkscape:cy="133.13783"
     inkscape:window-width="1920"
     inkscape:window-height="1013"
     inkscape:window-x="0"
     inkscape:window-y="0"
     inkscape:window-maximized="1"
     inkscape:current-layer="svg28" />
  <metadata
     id="metadata2">
Created by potrace 1.16, written by Peter Selinger 2001-2019
</metadata>
  <g
     transform="matrix(0.1,0,0,-0.10756841,-19.703517,189.42001)"
     fill="#000000"
     stroke="none"
     id="g26">
    <path
       d="m 897,1706 c -119,-44 -199,-179 -181,-305 3,-26 25,-82 47,-126 39,-77 41,-85 45,-190 3,-67 9,-113 16,-117 14,-10 338,-10 352,0 7,4 13,50 16,117 4,107 5,113 48,194 39,76 43,92 44,155 0,112 -49,199 -142,253 -37,22 -60,27 -126,30 -52,2 -94,-2 -119,-11 z m 221,-79 c 57,-38 86,-93 90,-170 4,-64 2,-73 -36,-145 -22,-43 -43,-94 -47,-115 l -7,-37 H 1000 882 l -7,37 c -4,21 -25,72 -47,115 -38,72 -40,81 -36,146 3,55 9,77 31,108 69,99 198,126 295,61 z"
       id="path4" />
    <path
       d="m 956,1405 c -13,-14 -31,-25 -40,-25 -9,0 -25,-9 -37,-21 -25,-25 -20,-67 17,-142 22,-42 29,-48 52,-45 35,4 40,34 14,85 l -20,38 h 58 58 l -20,-38 c -26,-51 -21,-81 14,-85 23,-3 30,3 52,45 37,75 42,117 17,142 -12,12 -28,21 -37,21 -9,0 -27,11 -40,25 -13,14 -32,25 -44,25 -12,0 -31,-11 -44,-25 z"
       id="path6" />
    <path
       d="m 435,1670 c -10,-32 9,-46 110,-80 114,-38 140,-37 140,4 0,28 -4,31 -100,63 -116,39 -141,41 -150,13 z"
       id="path8" />
    <path
       d="m 1410,1656 c -86,-29 -95,-35 -98,-59 -5,-42 21,-43 135,-6 112,36 128,47 118,79 -9,28 -41,25 -155,-14 z"
       id="path10" />
    <path
       d="m 403,1484 c -3,-9 -2,-24 4,-33 15,-24 231,-24 246,0 6,9 7,24 4,33 -5,14 -25,16 -127,16 -102,0 -122,-2 -127,-16 z"
       id="path12" />
    <path
       d="m 1347,1493 c -4,-3 -7,-17 -7,-29 0,-31 21,-36 144,-32 104,3 127,14 113,52 -5,14 -24,16 -125,16 -65,0 -122,-3 -125,-7 z"
       id="path14" />
    <path
       d="m 558,1346 c -91,-37 -102,-47 -93,-75 9,-30 54,-26 145,13 69,29 75,34 75,61 0,42 -30,42 -127,1 z"
       id="path16" />
    <path
       d="m 1314,1366 c -13,-34 3,-51 76,-83 84,-35 135,-42 144,-17 11,28 -10,46 -95,80 -91,37 -117,41 -125,20 z"
       id="path18" />
    <path
       d="M 595,864 C 518,821 444,786 413,780 171,729 143,391 373,295 c 50,-21 152,-19 202,4 22,10 56,33 74,52 108,107 92,302 -30,384 l -45,31 98,54 c 110,60 122,70 113,100 -11,34 -53,22 -190,-56 z M 575,676 c 64,-49 91,-141 62,-209 l -12,-29 -32,40 c -26,32 -32,47 -27,70 7,34 -16,86 -45,102 -39,20 -91,12 -123,-20 -27,-27 -30,-36 -26,-73 4,-37 1,-48 -28,-81 l -33,-39 -11,27 c -13,35 -13,97 1,133 14,37 56,82 94,99 49,23 136,13 180,-20 z"
       id="path20" />
    <path
       d="m 966,924 c -3,-9 -6,-44 -6,-78 V 784 L 918,773 C 861,758 798,702 770,643 752,604 749,583 752,520 c 4,-96 38,-159 112,-205 45,-27 57,-30 136,-30 79,0 91,3 136,30 74,46 108,109 112,205 4,67 1,83 -22,127 -31,62 -86,110 -143,126 l -43,11 v 62 c 0,80 -6,94 -40,94 -16,0 -30,-7 -34,-16 z m 114,-233 c 80,-43 122,-145 90,-221 l -13,-31 -30,37 c -25,29 -31,46 -31,86 -1,63 -35,98 -96,98 -61,0 -95,-35 -96,-98 0,-40 -6,-57 -31,-86 l -30,-37 -13,31 c -7,17 -10,51 -8,81 12,121 151,198 258,140 z"
       id="path22" />
    <path
       d="m 1215,919 c -9,-28 2,-38 118,-102 l 98,-54 -31,-13 c -69,-28 -120,-122 -120,-220 0,-147 102,-249 248,-250 134,0 232,82 256,213 23,125 -69,258 -197,287 -27,6 -110,44 -184,85 -143,79 -177,89 -188,54 z m 388,-223 c 39,-16 82,-61 96,-99 14,-36 14,-98 1,-133 l -11,-27 -33,39 c -29,33 -32,44 -28,81 4,37 1,46 -26,73 -32,32 -84,40 -123,20 -29,-16 -52,-68 -45,-104 4,-25 -1,-38 -28,-69 l -34,-38 -11,32 c -16,46 -13,88 8,134 41,90 143,130 234,91 z"
       id="path24" />
  </g>
</svg>
