<?xml version="1.0" encoding="UTF-8" standalone="no"?>
<!-- Uploaded to: SVG Repo, www.svgrepo.com, Generator: SVG Repo Mixer Tools -->

<svg
   fill="#000000"
   height="100"
   width="100"
   version="1.1"
   id="Capa_1"
   viewBox="0 0 491.038 491.038"
   xml:space="preserve"
   sodipodi:docname="funding.svg"
   inkscape:version="1.1.2 (0a00cf5339, 2022-02-04)"
   xmlns:inkscape="http://www.inkscape.org/namespaces/inkscape"
   xmlns:sodipodi="http://sodipodi.sourceforge.net/DTD/sodipodi-0.dtd"
   xmlns="http://www.w3.org/2000/svg"
   xmlns:svg="http://www.w3.org/2000/svg"><defs
   id="defs9" /><sodipodi:namedview
   id="namedview7"
   pagecolor="#ffffff"
   bordercolor="#666666"
   borderopacity="1.0"
   inkscape:pageshadow="2"
   inkscape:pageopacity="0.0"
   inkscape:pagecheckerboard="0"
   showgrid="false"
   scale-x="4.91038"
   fit-margin-top="0"
   fit-margin-left="0"
   fit-margin-right="0"
   fit-margin-bottom="0"
   inkscape:zoom="0.8525"
   inkscape:cx="286.21701"
   inkscape:cy="395.89443"
   inkscape:window-width="1920"
   inkscape:window-height="1013"
   inkscape:window-x="0"
   inkscape:window-y="0"
   inkscape:window-maximized="1"
   inkscape:current-layer="Capa_1" />
<g
   id="g4"
   transform="translate(12.596571,5.8076897)">
	<path
   d="m 191,475.95 -76.6,-0.4 c -3.6,0 -6.5,-2.9 -6.5,-6.5 l -1.4,-40.4 -72.7,-87.6 c -10.7,-11.4 -18,-24.2 -20.3,-39.6 l -0.7,-4.5 -12.7,-122.9 c -0.6,-6.1 1.5,-12.3 6.2,-16.1 5.7,-4.6 14.7,-6.3 21.4,1.3 4.7,5.4 7,22.2 7.8,26.7 2.7,16.1 5.4,39.1 5.8,55.3 0,1.1 0.1,2.6 0.2,3.7 0.4,7.1 2.1,13.7 5.1,20.2 16.4,35.6 49.3,80.6 49.3,80.6 l 1.8,2.7 c 1.4,2 4.1,2.7 6.3,1.5 2.4,-1.3 3.2,-4.4 1.8,-6.7 l -43.6,-71.1 c -4.7,-7.9 -2,-19.1 6.5,-24.3 8.5,-5.2 19.7,-2.6 24.4,5.3 l 45.3,58.2 c 3,3.8 8.5,9.3 12.4,12.1 40.7,29.3 46.2,59.1 49.8,74.3 0,0 0.3,3.4 0.4,8.3 v 0 0 c 0,4.1 -0.1,9.2 -0.8,14.3 l -2.7,48.9 c 0,3.8 -2.9,6.7 -6.5,6.7 z M 46,167.85 c 1.3,4.3 2.2,8.7 2.9,12.9 2.3,13.9 5.8,39 6,52.3 0,1.4 0.1,2.7 0.1,4.1 1.5,-1.3 3.1,-2.6 4.9,-3.7 2.2,-1.4 4.5,-2.4 6.9,-3.2 0.1,-0.2 0.2,-0.3 0.3,-0.4 -1.7,-12.7 -6.2,-36.7 -9.5,-49.1 -1.7,-6.3 -5.3,-10.9 -11.6,-12.9 z m 24.4,17.6 c 2,9.2 7.2,26.1 8.4,35.1 l 0.8,6.1 c 0.1,0.6 0.1,1.2 0.1,1.8 3.7,0.1 7.4,0.9 10.9,2.2 -1.2,-8.2 -6.7,-24.6 -8.7,-32.3 -1.8,-6.3 -5.4,-10.8 -11.5,-12.9 z m 390.3,-26.2 c -4.7,5.4 -7,22.2 -7.8,26.7 -2.7,16.1 -5.4,39.1 -5.8,55.3 0,1.1 -0.1,2.6 -0.2,3.7 -0.4,7.1 -2.1,13.7 -5.1,20.2 -16.4,35.6 -49.3,80.6 -49.3,80.6 l -1.8,2.7 c -1.4,2 -4.1,2.7 -6.3,1.5 -2.4,-1.3 -3.2,-4.4 -1.8,-6.7 l 43.5,-71 c 4.7,-7.9 2,-19.1 -6.5,-24.3 -8.5,-5.2 -19.7,-2.6 -24.4,5.3 l -45.3,58.2 c -3,3.8 -8.5,9.3 -12.4,12.1 -40.7,29.3 -46.2,59.1 -49.8,74.3 0,0 -0.3,3.4 -0.4,8.3 v 0 c 0,4.1 0.1,9.2 0.8,14.3 l 2.7,48.9 c 0,3.6 2.9,6.5 6.5,6.5 l 76.6,-0.4 c 3.6,0 6.5,-2.9 6.5,-6.5 l 1.4,-40.4 72.7,-87.6 c 10.7,-11.4 18,-24.2 20.3,-39.6 l 0.7,-4.5 12.7,-122.9 c 0.6,-6.1 -1.5,-12.3 -6.2,-16.1 -5.6,-4.5 -14.6,-6.2 -21.3,1.4 z m -39.3,70.5 c 0.1,0.2 0.2,0.3 0.3,0.4 2.4,0.8 4.7,1.9 6.9,3.2 1.8,1.1 3.4,2.3 4.9,3.7 0,-1.4 0.1,-2.7 0.1,-4.1 0.3,-13.3 3.7,-38.4 6,-52.3 0.7,-4.2 1.5,-8.5 2.9,-12.9 -6.3,2.1 -10,6.6 -11.6,12.8 -3.4,12.5 -7.8,36.6 -9.5,49.2 z m -23.5,0.7 c 3.5,-1.3 7.2,-2 10.9,-2.2 0,-0.6 0,-1.2 0.1,-1.8 l 0.8,-6.1 c 1.2,-8.9 6.3,-25.8 8.4,-35.1 -6.2,2.1 -9.8,6.6 -11.4,12.8 -2.1,7.8 -7.6,24.2 -8.8,32.4 z m -11.4,-9.5 c 0,-6 -4.8,-10.8 -10.8,-10.8 H 116.2 c -6,0 -10.8,4.8 -10.8,10.8 0,6 4.8,10.8 10.8,10.8 h 259.5 c 6,0 10.8,-4.8 10.8,-10.8 z m -38.7,39.1 c 0,-6 -4.8,-10.8 -10.8,-10.8 H 135.4 c -6,0 -10.8,4.8 -10.8,10.8 0,6 4.8,10.8 10.8,10.8 H 337 c 6,0 10.8,-4.8 10.8,-10.8 z m -176.3,28.4 c -6,0 -10.8,4.8 -10.8,10.8 0,6 4.8,10.8 10.8,10.8 h 129.3 c 6,0 10.8,-4.8 10.8,-10.8 0,-6 -4.8,-10.8 -10.8,-10.8 z M 324.8,87.35 c -8.5,0 -15.3,6.9 -15.3,15.3 0,8.5 6.9,15.3 15.3,15.3 8.5,0 15.3,-6.9 15.3,-15.3 0,-8.5 -6.9,-15.3 -15.3,-15.3 z m -161.2,0 c -8.5,0 -15.3,6.9 -15.3,15.3 0,8.5 6.9,15.3 15.3,15.3 8.5,0 15.3,-6.9 15.3,-15.3 0.1,-8.5 -6.8,-15.3 -15.3,-15.3 z m 226.5,80.4 c 0,13.9 -11.3,25.3 -25.3,25.3 H 123.6 c -13.9,0 -25.3,-11.3 -25.3,-25.3 V 37.65 c 0,-13.9 11.3,-25.3 25.3,-25.3 h 241.2 c 13.9,0 25.3,11.3 25.3,25.3 z M 368.5,64.95 c -2,0.5 -4.1,0.8 -6.3,0.8 -14.1,0 -25.6,-11.5 -25.6,-25.6 0,-2.2 0.3,-4.2 0.8,-6.2 H 149.5 c 0.3,1.5 0.4,3.1 0.4,4.7 0,14.1 -11.5,25.6 -25.6,25.6 -1.5,0 -3,-0.1 -4.5,-0.4 v 77.7 c 1.5,-0.3 3,-0.4 4.5,-0.4 14.1,0 25.6,11.5 25.6,25.6 0,1.6 -0.2,3.2 -0.4,4.7 h 187.2 c -0.1,-1 -0.2,-2.1 -0.2,-3.2 0,-14.1 11.5,-25.6 25.6,-25.6 2.2,0 4.3,0.3 6.3,0.8 v -78.5 z m -68.9,37.7 c 0,30.6 -24.8,55.4 -55.4,55.4 -30.6,0 -55.4,-24.8 -55.4,-55.4 0,-30.6 24.8,-55.4 55.4,-55.4 30.6,0.1 55.4,24.9 55.4,55.4 z M 239,88.35 c 0,-2 0.5,-3.6 1.5,-4.8 1,-1.3 2.5,-1.9 4.5,-1.9 2,0 3.6,0.8 4.8,2.3 1,1.2 1.6,3 1.7,5.2 0.1,1 1,1.8 2,1.8 l 10.4,-0.2 c 1.1,0 2.1,-1 2,-2.1 -0.3,-4.5 -1.7,-8.3 -4.4,-11.4 -2.7,-3.2 -6.4,-5.2 -10.9,-6.1 v -7.8 c 0,-1 -0.8,-1.7 -1.7,-1.7 h -6.3 c -1,0 -1.7,0.8 -1.7,1.7 v 7.6 c -4.8,0.7 -8.7,2.5 -11.7,5.3 -3.3,3.2 -4.9,7.2 -4.9,12 0,5.4 1.6,9.5 4.7,12.3 3.1,2.8 8.1,5.5 14.9,8.2 2.8,1.2 4.7,2.4 5.8,3.7 1.1,1.3 1.6,3 1.6,5.3 0,2 -0.5,3.5 -1.6,4.8 -1.1,1.2 -2.6,1.8 -4.7,1.8 -2.5,0 -4.5,-0.8 -6.1,-2.4 -1.3,-1.3 -2,-3.3 -2.3,-5.9 -0.1,-1 -1,-1.8 -2.1,-1.8 l -10.3,0.2 c -1.1,0 -2.1,1 -2,2.1 0.3,5.5 2,9.7 5.3,12.7 3.6,3.2 8,5.2 13.3,5.8 v 7.1 c 0,1 0.8,1.7 1.7,1.7 h 6.3 c 1,0 1.7,-0.8 1.7,-1.7 v -7.3 c 4.3,-0.8 7.7,-2.5 10.4,-5.1 3.2,-3.1 4.7,-7.1 4.7,-12.1 0,-5.3 -1.6,-9.3 -4.7,-12.2 -3.1,-2.8 -8.1,-5.7 -14.8,-8.5 -2.9,-1.3 -4.9,-2.5 -5.9,-3.8 -0.7,-1.2 -1.2,-2.9 -1.2,-4.8 z"
   id="path2" />
</g>
</svg>
