<?xml version="1.0" encoding="UTF-8" standalone="no"?>
<svg
   version="1.0"
   width="100pt"
   height="100pt"
   viewBox="0 0 549.99998 550.0001"
   preserveAspectRatio="xMidYMid meet"
   id="svg28"
   sodipodi:docname="operations.svg"
   inkscape:version="1.1.2 (0a00cf5339, 2022-02-04)"
   xmlns:inkscape="http://www.inkscape.org/namespaces/inkscape"
   xmlns:sodipodi="http://sodipodi.sourceforge.net/DTD/sodipodi-0.dtd"
   xmlns="http://www.w3.org/2000/svg"
   xmlns:svg="http://www.w3.org/2000/svg">
  <defs
     id="defs32" />
  <sodipodi:namedview
     id="namedview30"
     pagecolor="#ffffff"
     bordercolor="#666666"
     borderopacity="1.0"
     inkscape:pageshadow="2"
     inkscape:pageopacity="0.0"
     inkscape:pagecheckerboard="0"
     inkscape:document-units="pt"
     showgrid="false"
     scale-x="5.5"
     inkscape:zoom="0.99902344"
     inkscape:cx="244.23851"
     inkscape:cy="340.83284"
     inkscape:window-width="1920"
     inkscape:window-height="1013"
     inkscape:window-x="0"
     inkscape:window-y="0"
     inkscape:window-maximized="1"
     inkscape:current-layer="svg28" />
  <metadata
     id="metadata2">
Created by potrace 1.16, written by Peter Selinger 2001-2019
</metadata>
  <g
     transform="matrix(0.1,0,0,-0.1,20.92654,536.78232)"
     fill="#000000"
     stroke="none"
     id="g26">
    <path
       d="M 402,5104 C 314,5081 239,5038 169,4972 -22,4793 -54,4500 94,4278 229,4073 508,3990 742,4084 l 56,23 328,-328 328,-328 46,26 c 25,14 87,51 139,81 l 93,55 -357,357 -358,358 21,49 c 83,195 36,430 -117,584 -107,107 -236,160 -387,158 -44,0 -103,-7 -132,-15 z"
       id="path4" />
    <path
       d="m 2295,4860 -260,-260 110,-110 110,-110 77,77 78,78 v -263 c 0,-144 3,-262 6,-262 4,0 38,18 77,40 l 69,40 70,-40 c 38,-22 74,-40 79,-40 5,0 9,109 9,257 v 257 l 73,-72 72,-72 110,110 110,110 -260,260 c -143,143 -262,260 -265,260 -3,0 -122,-117 -265,-260 z"
       id="path6" />
    <path
       d="m 4452,5106 c -189,-46 -353,-215 -392,-403 -19,-92 -9,-236 23,-313 l 27,-65 -357,-357 c -196,-197 -355,-359 -353,-361 3,-2 65,-38 139,-81 l 135,-77 326,326 326,326 80,-27 c 103,-35 243,-38 345,-5 169,54 309,200 354,372 20,73 19,222 -1,290 -54,185 -205,331 -385,374 -77,18 -194,18 -267,1 z"
       id="path8" />
    <path
       d="m 2113,3501 c -243,-141 -439,-259 -435,-263 20,-19 879,-508 889,-506 19,4 882,502 883,509 0,6 -886,520 -892,518 -2,-1 -202,-117 -445,-258 z"
       id="path10" />
    <path
       d="M 255,2820 -5,2560 257,2298 520,2035 625,2140 c 58,58 105,109 105,115 0,5 -33,42 -72,82 l -72,73 h 322 322 v 150 150 H 908 586 l 72,73 c 39,40 72,77 72,82 0,10 -201,215 -210,215 -3,0 -122,-117 -265,-260 z"
       id="path12" />
    <path
       d="m 4487,2972 -107,-107 77,-78 78,-77 h -323 -322 v -150 -150 h 322 323 l -78,-78 -77,-77 110,-110 110,-110 263,263 262,262 -260,260 c -143,143 -262,260 -265,260 -3,0 -54,-48 -113,-108 z"
       id="path14" />
    <path
       d="m 1522,2474 3,-515 440,-254 c 242,-140 443,-255 448,-255 4,0 7,231 7,513 v 514 l -445,256 c -245,142 -447,257 -450,257 -3,0 -4,-232 -3,-516 z"
       id="path16" />
    <path
       d="m 3155,2736 -440,-254 -3,-516 c -1,-284 0,-516 2,-516 8,0 861,493 874,504 9,9 12,122 10,524 l -3,512 z"
       id="path18" />
    <path
       d="m 1126,1341 -328,-328 -58,24 C 578,1102 382,1080 231,979 96,889 14,742 3,570 -9,374 81,194 245,84 396,-17 612,-28 788,57 c 80,39 190,150 230,233 74,151 78,328 11,473 l -13,28 358,358 358,358 -33,20 c -19,11 -68,40 -109,63 -41,23 -89,51 -105,61 l -31,18 z"
       id="path20" />
    <path
       d="m 3540,1594 c -69,-40 -129,-75 -135,-78 -5,-2 151,-165 347,-362 l 358,-359 -27,-65 c -32,-77 -42,-221 -23,-313 29,-139 140,-288 265,-354 309,-163 680,-7 779,326 20,68 21,217 1,290 -36,138 -152,281 -275,339 -143,68 -302,73 -458,15 l -44,-16 -326,326 c -180,180 -329,327 -332,326 -3,-1 -61,-34 -130,-75 z"
       id="path22" />
    <path
       d="M 2410,848 V 585 l -78,78 -77,77 -110,-110 -110,-110 263,-263 262,-262 262,262 263,263 -110,110 -110,110 -72,-72 -73,-72 v 257 c 0,141 -4,257 -9,257 -4,0 -40,-18 -79,-41 l -71,-41 -70,41 c -38,23 -72,41 -75,41 -3,0 -6,-118 -6,-262 z"
       id="path24" />
  </g>
</svg>
