<?xml version="1.0" encoding="UTF-8" standalone="no"?>
<svg
   version="1.0"
   width="100pt"
   height="100pt"
   viewBox="0 0 179.99999 179.99999"
   preserveAspectRatio="xMidYMid meet"
   id="svg14"
   sodipodi:docname="trading.svg"
   inkscape:version="1.1.2 (0a00cf5339, 2022-02-04)"
   xmlns:inkscape="http://www.inkscape.org/namespaces/inkscape"
   xmlns:sodipodi="http://sodipodi.sourceforge.net/DTD/sodipodi-0.dtd"
   xmlns="http://www.w3.org/2000/svg"
   xmlns:svg="http://www.w3.org/2000/svg">
  <defs
     id="defs18" />
  <sodipodi:namedview
     id="namedview16"
     pagecolor="#ffffff"
     bordercolor="#666666"
     borderopacity="1.0"
     inkscape:pageshadow="2"
     inkscape:pageopacity="0.0"
     inkscape:pagecheckerboard="0"
     inkscape:document-units="pt"
     showgrid="false"
     scale-x="1.8"
     inkscape:zoom="2.5575"
     inkscape:cx="95.40567"
     inkscape:cy="133.13783"
     inkscape:window-width="1920"
     inkscape:window-height="1013"
     inkscape:window-x="0"
     inkscape:window-y="0"
     inkscape:window-maximized="1"
     inkscape:current-layer="svg14" />
  <metadata
     id="metadata2">
Created by potrace 1.16, written by Peter Selinger 2001-2019
</metadata>
  <path
     d="m 63.947652,49.563449 v 8 h -6 -6 v 25.5 25.500001 h 6 6 v 7.5 7.5 h 4 4 v -7.5 -7.5 h 6 6 v -25.500001 -25.5 h -6 -6 v -8 -8 h -4 -4 z m 13,33.5 v 18.500001 h -9 -9 v -18.500001 -18.5 h 9 9 z"
     id="path4"
     style="fill:#000000;stroke:none;stroke-width:0.1" />
  <path
     d="m 154.09102,24.321345 v 7.5 h -6 -6 v 25.5 25.5 h 6 6 v 8 8.000004 h 3.5 3.5 v -8.000004 -8 h 6.5 6.5 v -25.5 -25.5 h -6.5 -6.5 v -7.5 -7.5 h -3.5 -3.5 z m 13,33 v 18.5 h -9 -9 v -18.5 -18.5 h 9 9 z"
     id="path6"
     style="fill:#000000;stroke:none;stroke-width:0.1" />
  <path
     d="m 19.509587,88.028411 v 8 h -6.5 -6.4999996 v 31.499999 31.5 h 6.4999996 6.5 v 8 8 h 3.5 3.5 v -8 -8 h 6 6 v -31.5 -31.499999 h -6 -6 v -8 -8 h -3.5 -3.5 z m 12,39.499999 v 24.5 h -9 -9 v -24.5 -24.5 h 9 9 z"
     id="path8"
     style="fill:#000000;stroke:none;stroke-width:0.1" />
  <path
     d="m 111.29262,81.563449 v 8 h -6 -5.999997 v 17.500001 17.5 h 5.999997 6 v 8 8 h 4 4 v -8 -8 h 6 6 v -17.5 -17.500001 h -6 -6 v -8 -8 h -4 -4 z m 13,25.500001 v 10.5 h -9 -9 v -10.5 -10.500001 h 9 9 z"
     id="path10"
     style="fill:#000000;stroke:none;stroke-width:0.1" />
</svg>
