<?xml version="1.0" encoding="UTF-8" standalone="no"?>
<!-- Created with Inkscape (http://www.inkscape.org/) -->

<svg
   width="508mm"
   height="220mm"
   viewBox="0 0 508.00001 220"
   version="1.1"
   id="svg5"
   inkscape:version="1.1.2 (0a00cf5339, 2022-02-04)"
   sodipodi:docname="tokenization_monetary_policies.svg"
   xmlns:inkscape="http://www.inkscape.org/namespaces/inkscape"
   xmlns:sodipodi="http://sodipodi.sourceforge.net/DTD/sodipodi-0.dtd"
   xmlns="http://www.w3.org/2000/svg"
   xmlns:svg="http://www.w3.org/2000/svg">
  <sodipodi:namedview
     id="namedview7"
     pagecolor="#ffffff"
     bordercolor="#666666"
     borderopacity="1.0"
     inkscape:pageshadow="2"
     inkscape:pageopacity="0.0"
     inkscape:pagecheckerboard="0"
     inkscape:document-units="mm"
     showgrid="false"
     inkscape:snap-global="false"
     inkscape:zoom="0.37504688"
     inkscape:cx="666.58333"
     inkscape:cy="955.8805"
     inkscape:window-width="1920"
     inkscape:window-height="1013"
     inkscape:window-x="0"
     inkscape:window-y="0"
     inkscape:window-maximized="1"
     inkscape:current-layer="layer1"
     fit-margin-top="0"
     fit-margin-left="0"
     fit-margin-right="0"
     fit-margin-bottom="0"
     showguides="false" />
  <defs
     id="defs2">
    <marker
       style="overflow:visible"
       id="marker1425"
       refX="0"
       refY="0"
       orient="auto"
       inkscape:stockid="Arrow1Lend"
       inkscape:isstock="true">
      <path
         transform="matrix(-0.8,0,0,-0.8,-10,0)"
         style="fill:context-stroke;fill-rule:evenodd;stroke:context-stroke;stroke-width:1pt"
         d="M 0,0 5,-5 -12.5,0 5,5 Z"
         id="path1423" />
    </marker>
    <marker
       style="overflow:visible"
       id="Arrow2Lstart"
       refX="0"
       refY="0"
       orient="auto"
       inkscape:stockid="Arrow2Lstart"
       inkscape:isstock="true">
      <path
         transform="matrix(1.1,0,0,1.1,1.1,0)"
         d="M 8.7185878,4.0337352 -2.2072895,0.01601326 8.7185884,-4.0017078 c -1.7454984,2.3720609 -1.7354408,5.6174519 -6e-7,8.035443 z"
         style="fill:context-stroke;fill-rule:evenodd;stroke:context-stroke;stroke-width:0.625;stroke-linejoin:round"
         id="path1157" />
    </marker>
    <marker
       style="overflow:visible"
       id="Arrow1Lstart"
       refX="0"
       refY="0"
       orient="auto"
       inkscape:stockid="Arrow1Lstart"
       inkscape:isstock="true">
      <path
         transform="matrix(0.8,0,0,0.8,10,0)"
         style="fill:context-stroke;fill-rule:evenodd;stroke:context-stroke;stroke-width:1pt"
         d="M 0,0 5,-5 -12.5,0 5,5 Z"
         id="path1139" />
    </marker>
    <marker
       style="overflow:visible"
       id="Arrow1Lend"
       refX="0"
       refY="0"
       orient="auto"
       inkscape:stockid="Arrow1Lend"
       inkscape:isstock="true">
      <path
         transform="matrix(-0.8,0,0,-0.8,-10,0)"
         style="fill:context-stroke;fill-rule:evenodd;stroke:context-stroke;stroke-width:1pt"
         d="M 0,0 5,-5 -12.5,0 5,5 Z"
         id="path1142" />
    </marker>
    <linearGradient
       id="linearGradient3174"
       inkscape:swatch="solid">
      <stop
         style="stop-color:#f0bccd;stop-opacity:1;"
         offset="0"
         id="stop3172" />
    </linearGradient>
  </defs>
  <g
     inkscape:label="Layer 1"
     inkscape:groupmode="layer"
     id="layer1"
     transform="translate(-37.011887,-83.701126)"
     style="display:inline">
    <rect
       style="opacity:0;fill:#f0bccd;fill-opacity:1;stroke-width:1;stroke-miterlimit:4;stroke-dasharray:none"
       id="rect3218"
       width="0"
       height="0"
       x="-158.84901"
       y="-34.409584" />
    <text
       xml:space="preserve"
       style="font-style:normal;font-weight:normal;font-size:10.5833px;line-height:1.25;font-family:sans-serif;letter-spacing:0px;word-spacing:0px;fill:#000000;fill-opacity:1;stroke:none;stroke-width:0.264583"
       x="183.61255"
       y="228.62711"
       id="text12548"><tspan
         sodipodi:role="line"
         id="tspan12546"
         style="stroke-width:0.264583"
         x="183.61255"
         y="228.62711" /></text>
    <rect
       style="display:inline;fill:#ffffff;fill-opacity:1;stroke:#00110f;stroke-width:0.723777;stroke-linejoin:round;stroke-miterlimit:4;stroke-dasharray:4.34266, 4.34266;stroke-dashoffset:0;stroke-opacity:0.884574"
       id="rect1011-0-5-5-2"
       width="207.94511"
       height="71.335083"
       x="41.886509"
       y="-270.69696"
       rx="0"
       ry="0"
       transform="scale(1,-1)" />
    <text
       xml:space="preserve"
       style="font-style:normal;font-weight:normal;font-size:10.5833px;line-height:1.25;font-family:sans-serif;letter-spacing:0px;word-spacing:0px;display:inline;fill:#000000;fill-opacity:1;stroke:none;stroke-width:0.264583"
       x="125.11655"
       y="283.67627"
       id="text3735-0-1-9"
       inkscape:transform-center-x="1.8461432"><tspan
         sodipodi:role="line"
         id="tspan3733-9-9-9"
         style="stroke-width:0.264583"
         x="125.11655"
         y="283.67627">SUPPLY</tspan></text>
    <text
       xml:space="preserve"
       style="font-style:normal;font-weight:normal;font-size:10.5833px;line-height:1.25;font-family:sans-serif;letter-spacing:0px;word-spacing:0px;display:inline;fill:#000000;fill-opacity:1;stroke:none;stroke-width:0.264583"
       x="124.71468"
       y="98.77729"
       id="text3735-0-1-9-8"
       inkscape:transform-center-x="1.8461432"><tspan
         sodipodi:role="line"
         id="tspan3733-9-9-9-9"
         style="stroke-width:0.264583"
         x="124.71468"
         y="98.77729">DEMAND</tspan></text>
    <text
       xml:space="preserve"
       style="font-style:normal;font-weight:normal;font-size:10.5833px;line-height:1.25;font-family:sans-serif;letter-spacing:0px;word-spacing:0px;display:inline;fill:#000000;fill-opacity:1;stroke:none;stroke-width:0.264583"
       x="318.6911"
       y="284.03833"
       id="text3735-0-1-9-3"
       inkscape:transform-center-x="1.8461432"><tspan
         sodipodi:role="line"
         style="text-align:center;text-anchor:middle;stroke-width:0.264583"
         x="318.6911"
         y="284.03833"
         id="tspan25368">MONETARY POLICY</tspan></text>
    <path
       d="m 261.04194,226.69768 v 1.96691 h -4.37131 -4.37132 v 3.3637 3.36371 h 4.37132 4.37131 v 1.96691 1.96691 l 0.19176,-0.002 0.19176,-0.003 1.88049,-3.58491 c 1.84853,-3.52562 1.87946,-3.58605 1.86399,-3.61456 -0.008,-0.016 -0.85364,-1.68413 -1.87842,-3.70691 l -1.86296,-3.67727 -0.19383,-0.003 -0.19279,-0.002 z m 2.07019,2.46747 c 1.15056,2.2725 1.50728,2.98515 1.50006,2.99883 -0.005,0.0103 -0.70003,1.33636 -1.54543,2.94752 l -1.53511,2.92813 -0.003,-1.59747 -0.002,-1.59748 h -4.37131 -4.37132 v -2.81639 -2.81639 h 4.37132 4.37131 v -1.58835 -1.58721 l 0.0371,0.0741 c 0.0207,0.0411 0.71756,1.41504 1.54852,3.0547 z"
       id="path90282-9-2-8"
       style="display:inline;fill:#000000;stroke:none;stroke-width:0.00108422" />
    <path
       d="m 379.24966,107.95029 v 1.96691 h -4.37131 -4.37132 v 3.3637 3.36371 h 4.37132 4.37131 v 1.96691 1.96691 l 0.19176,-0.002 0.19176,-0.003 1.88049,-3.58491 c 1.84853,-3.52562 1.87946,-3.58605 1.86399,-3.61456 -0.008,-0.016 -0.85364,-1.68413 -1.87842,-3.70691 l -1.86296,-3.67727 -0.19383,-0.003 -0.19279,-0.002 z m 2.07019,2.46747 c 1.15056,2.2725 1.50728,2.98515 1.50006,2.99883 -0.005,0.0103 -0.70003,1.33636 -1.54543,2.94752 l -1.53511,2.92813 -0.003,-1.59747 -0.002,-1.59748 h -4.37131 -4.37132 v -2.81639 -2.81639 h 4.37132 4.37131 v -1.58835 -1.58721 l 0.0371,0.0741 c 0.0207,0.0411 0.71756,1.41504 1.54852,3.0547 z"
       id="path90282-9-2-8-3"
       style="display:inline;fill:#000000;stroke:none;stroke-width:0.00108422" />
    <path
       d="m 151.77327,189.42448 h -1.96691 v -4.37131 -4.37132 h -3.3637 -3.36371 v 4.37132 4.37131 h -1.96691 -1.96691 l 0.002,0.19176 0.003,0.19176 3.58491,1.88049 c 3.52562,1.84853 3.58605,1.87946 3.61456,1.86399 0.016,-0.008 1.68413,-0.85364 3.70691,-1.87842 l 3.67727,-1.86296 0.003,-0.19383 0.002,-0.19279 z m -2.46747,2.07019 c -2.2725,1.15056 -2.98515,1.50728 -2.99883,1.50006 -0.0103,-0.005 -1.33636,-0.70003 -2.94752,-1.54543 l -2.92813,-1.53511 1.59747,-0.003 1.59748,-0.002 v -4.37131 -4.37132 h 2.81639 2.81639 v 4.37132 4.37131 h 1.58835 1.58721 l -0.0741,0.0371 c -0.0411,0.0207 -1.41504,0.71756 -3.0547,1.54852 z"
       id="path90282-9-2-8-3-3"
       style="display:inline;fill:#000000;stroke:none;stroke-width:0.00108422" />
    <path
       d="m 379.51006,134.66765 v 1.96691 h -4.37131 -4.37132 v 3.3637 3.36371 h 4.37132 4.37131 v 1.96691 1.96691 l 0.19176,-0.002 0.19176,-0.003 1.88049,-3.58491 c 1.84853,-3.52562 1.87946,-3.58605 1.86399,-3.61456 -0.008,-0.016 -0.85364,-1.68413 -1.87842,-3.70691 l -1.86296,-3.67727 -0.19383,-0.003 -0.19279,-0.002 z m 2.07019,2.46747 c 1.15056,2.2725 1.50728,2.98515 1.50006,2.99883 -0.005,0.0103 -0.70003,1.33636 -1.54543,2.94752 l -1.53511,2.92813 -0.003,-1.59747 -0.002,-1.59748 h -4.37131 -4.37132 v -2.81639 -2.81639 h 4.37132 4.37131 v -1.58835 -1.58721 l 0.0371,0.0741 c 0.0207,0.0411 0.71756,1.41504 1.54852,3.0547 z"
       id="path90282-9-2-8-0"
       style="display:inline;fill:#000000;stroke:none;stroke-width:0.00108422" />
    <path
       d="m 379.42255,162.11904 v 1.96691 h -4.37131 -4.37132 v 3.3637 3.36371 h 4.37132 4.37131 v 1.96691 1.96691 l 0.19176,-0.002 0.19176,-0.003 1.88049,-3.58491 c 1.84853,-3.52562 1.87946,-3.58605 1.86399,-3.61456 -0.008,-0.016 -0.85364,-1.68413 -1.87842,-3.70691 l -1.86296,-3.67727 -0.19383,-0.003 -0.19279,-0.002 z m 2.07019,2.46747 c 1.15056,2.2725 1.50728,2.98515 1.50006,2.99883 -0.005,0.0103 -0.70003,1.33636 -1.54543,2.94752 l -1.53511,2.92813 -0.003,-1.59747 -0.002,-1.59748 h -4.37131 -4.37132 v -2.81639 -2.81639 h 4.37132 4.37131 v -1.58835 -1.58721 l 0.0371,0.0741 c 0.0207,0.0411 0.71756,1.41504 1.54852,3.0547 z"
       id="path90282-9-2-8-0-4"
       style="display:inline;fill:#000000;stroke:none;stroke-width:0.00108422" />
    <path
       d="m 380.10569,191.33242 v 1.96691 h -4.37131 -4.37132 v 3.3637 3.36371 h 4.37132 4.37131 v 1.96691 1.96691 l 0.19176,-0.002 0.19176,-0.003 1.88049,-3.58491 c 1.84853,-3.52562 1.87946,-3.58605 1.86399,-3.61456 -0.008,-0.016 -0.85364,-1.68413 -1.87842,-3.70691 l -1.86296,-3.67727 -0.19383,-0.003 -0.19279,-0.002 z m 2.0702,2.46747 c 1.15056,2.2725 1.50727,2.98515 1.50006,2.99883 -0.005,0.0103 -0.70003,1.33636 -1.54543,2.94752 l -1.53511,2.92813 -0.003,-1.59747 -0.002,-1.59748 h -4.37131 -4.37132 v -2.81639 -2.81639 h 4.37132 4.37131 v -1.58835 -1.58721 l 0.0371,0.0741 c 0.0207,0.0411 0.71756,1.41504 1.54852,3.0547 z"
       id="path90282-9-2-8-0-1"
       style="display:inline;fill:#000000;stroke:none;stroke-width:0.00108422" />
    <path
       d="m 380.02784,221.43096 v 1.96691 h -4.37131 -4.37132 v 3.3637 3.36371 h 4.37132 4.37131 v 1.96691 1.96691 l 0.19176,-0.002 0.19176,-0.003 1.88049,-3.58491 c 1.84853,-3.52562 1.87946,-3.58605 1.86399,-3.61456 -0.008,-0.016 -0.85364,-1.68413 -1.87842,-3.70691 l -1.86296,-3.67727 -0.19383,-0.003 -0.19279,-0.002 z m 2.0702,2.46747 c 1.15056,2.2725 1.50727,2.98515 1.50006,2.99883 -0.005,0.0103 -0.70003,1.33636 -1.54543,2.94752 l -1.53511,2.92813 -0.003,-1.59747 -0.002,-1.59748 h -4.37131 -4.37132 v -2.81639 -2.81639 h 4.37132 4.37131 v -1.58835 -1.58721 l 0.0371,0.0741 c 0.0207,0.0411 0.71756,1.41504 1.54852,3.0547 z"
       id="path90282-9-2-8-0-1-3"
       style="display:inline;fill:#000000;stroke:none;stroke-width:0.00108422" />
    <path
       d="m 379.40358,250.00117 v 1.96691 h -4.37131 -4.37132 v 3.3637 3.36371 h 4.37132 4.37131 v 1.96691 1.96691 l 0.19176,-0.002 0.19176,-0.003 1.88049,-3.58491 c 1.84853,-3.52562 1.87946,-3.58605 1.86399,-3.61456 -0.008,-0.016 -0.85364,-1.68413 -1.87842,-3.70691 l -1.86296,-3.67727 -0.19383,-0.003 -0.19279,-0.002 z m 2.07019,2.46747 c 1.15056,2.2725 1.50728,2.98515 1.50006,2.99883 -0.005,0.0103 -0.70003,1.33636 -1.54543,2.94752 l -1.53511,2.92813 -0.003,-1.59747 -0.002,-1.59748 h -4.37131 -4.37132 v -2.81639 -2.81639 h 4.37132 4.37131 v -1.58835 -1.58721 l 0.0371,0.0741 c 0.0207,0.0411 0.71756,1.41504 1.54852,3.0547 z"
       id="path90282-9-2-8-0-7"
       style="display:inline;fill:#000000;stroke:none;stroke-width:0.00108422" />
    <rect
       style="display:inline;fill:#ffffff;fill-opacity:1;stroke:#00110f;stroke-width:0.730638;stroke-linejoin:round;stroke-miterlimit:4;stroke-dasharray:4.38383, 4.38383;stroke-dashoffset:0;stroke-opacity:0.884574"
       id="rect1011-0-5-5-2-5"
       width="210.233"
       height="71.90258"
       x="42.450642"
       y="-173.01561"
       rx="0"
       ry="0"
       transform="scale(1,-1)" />
    <rect
       style="display:inline;fill:#ffffff;fill-opacity:1;stroke:#00110f;stroke-width:0.775655;stroke-linejoin:round;stroke-miterlimit:4;stroke-dasharray:4.65394, 4.65394;stroke-dashoffset:0;stroke-opacity:0.884574"
       id="rect1011-0-5-5-2-5-6"
       width="99.804939"
       height="170.69696"
       x="268.55948"
       y="-270.4859"
       rx="0"
       ry="0"
       transform="scale(1,-1)" />
    <rect
       style="display:inline;fill:#ffffff;fill-opacity:1;stroke:#00110f;stroke-width:0.968933;stroke-linejoin:round;stroke-miterlimit:4;stroke-dasharray:5.81361, 5.81361;stroke-dashoffset:0;stroke-opacity:0.884574"
       id="rect1011-0-5-5-2-5-6-0"
       width="154.7083"
       height="171.83638"
       x="386.59085"
       y="-269.72134"
       rx="0"
       ry="0"
       transform="scale(1,-1)" />
    <rect
       style="display:inline;fill:#f6f6f6;fill-opacity:1;stroke:#00110f;stroke-width:0.284288;stroke-linejoin:round;stroke-miterlimit:4;stroke-dasharray:none;stroke-opacity:0.884574"
       id="rect1011-0-5"
       width="55.395401"
       height="41.352188"
       x="117.38504"
       y="-158.59076"
       rx="0"
       ry="0.064824291"
       transform="scale(1,-1)" />
    <rect
       style="display:inline;fill:#f6f6f6;fill-opacity:1;stroke:#00110f;stroke-width:0.284288;stroke-linejoin:round;stroke-miterlimit:4;stroke-dasharray:none;stroke-opacity:0.884574"
       id="rect1011-0-5-3"
       width="55.395401"
       height="41.352188"
       x="45.594002"
       y="-158.63754"
       rx="0"
       ry="0.064824291"
       transform="scale(1,-1)" />
    <rect
       style="display:inline;fill:#f6f6f6;fill-opacity:1;stroke:#00110f;stroke-width:0.285433;stroke-linejoin:round;stroke-opacity:0.884574"
       id="rect1011-0-5-5"
       width="55.394428"
       height="41.647011"
       x="188.26656"
       y="-158.60237"
       rx="0"
       ry="0"
       transform="scale(1,-1)" />
    <text
       xml:space="preserve"
       style="font-style:normal;font-weight:normal;font-size:10.5833px;line-height:1.25;font-family:sans-serif;letter-spacing:0px;word-spacing:0px;display:inline;fill:#000000;fill-opacity:1;stroke:none;stroke-width:0.264583"
       x="53.122341"
       y="142.08063"
       id="text3735"><tspan
         sodipodi:role="line"
         id="tspan3733"
         style="stroke-width:0.264583"
         x="53.122341"
         y="142.08063">ASSETS</tspan></text>
    <text
       xml:space="preserve"
       style="font-style:normal;font-weight:normal;font-size:10.5833px;line-height:1.25;font-family:sans-serif;letter-spacing:0px;word-spacing:0px;display:inline;fill:#000000;fill-opacity:1;stroke:none;stroke-width:0.264583"
       x="124.40269"
       y="141.69301"
       id="text3735-0-1"
       inkscape:transform-center-x="1.8461432"><tspan
         sodipodi:role="line"
         id="tspan3733-9-9"
         style="stroke-width:0.264583"
         x="124.40269"
         y="141.69301">UTILITY</tspan></text>
    <text
       xml:space="preserve"
       style="font-style:normal;font-weight:normal;font-size:10.5833px;line-height:1.25;font-family:sans-serif;letter-spacing:0px;word-spacing:0px;display:inline;fill:#000000;fill-opacity:1;stroke:none;stroke-width:0.264583"
       x="198.67"
       y="141.81685"
       id="text3735-0-1-4"
       inkscape:transform-center-x="1.8461432"><tspan
         sodipodi:role="line"
         id="tspan3733-9-9-4"
         style="stroke-width:0.264583"
         x="198.67"
         y="141.81685">VALUE</tspan></text>
    <path
       d="m 182.65655,132.23931 v 1.96691 h -4.37131 -4.37132 v 3.3637 3.36371 h 4.37132 4.37131 v 1.96691 1.96691 l 0.19176,-0.002 0.19176,-0.003 1.88049,-3.58491 c 1.84853,-3.52562 1.87946,-3.58605 1.86399,-3.61456 -0.008,-0.016 -0.85364,-1.68413 -1.87842,-3.70691 l -1.86296,-3.67727 -0.19383,-0.003 -0.19279,-0.002 z m 2.07019,2.46747 c 1.15056,2.2725 1.50728,2.98515 1.50006,2.99883 -0.005,0.0103 -0.70003,1.33636 -1.54543,2.94752 l -1.53511,2.92813 -0.003,-1.59747 -0.002,-1.59748 h -4.37131 -4.37132 v -2.81639 -2.81639 h 4.37132 4.37131 v -1.58835 -1.58721 l 0.0371,0.0741 c 0.0207,0.0411 0.71756,1.41504 1.54852,3.0547 z"
       id="path90282-9"
       style="display:inline;fill:#000000;stroke:none;stroke-width:0.00108422" />
    <rect
       style="display:inline;fill:#f6f6f6;fill-opacity:1;stroke:#00110f;stroke-width:0.54216;stroke-linejoin:round;stroke-miterlimit:4;stroke-dasharray:none;stroke-opacity:0.884574"
       id="rect1011-0-5-9"
       width="202.7347"
       height="41.094318"
       x="44.558369"
       y="-255.86478"
       rx="0"
       ry="0"
       transform="scale(1,-1)" />
    <rect
       style="display:inline;fill:#a1d38f;fill-opacity:1;stroke:#00110f;stroke-width:0.365046;stroke-linejoin:round;stroke-opacity:0.884574"
       id="rect1011-0-5-5-25"
       width="90.77877"
       height="41.567398"
       x="273.25229"
       y="-235.48833"
       rx="0"
       ry="0"
       transform="scale(1,-1)" />
    <text
       xml:space="preserve"
       style="font-style:normal;font-weight:normal;font-size:10.5833px;line-height:1.25;font-family:sans-serif;letter-spacing:0px;word-spacing:0px;display:inline;fill:#000000;fill-opacity:1;stroke:none;stroke-width:0.264583"
       x="95.288887"
       y="238.927"
       id="text3735-0-1-7"
       inkscape:transform-center-x="1.8461432"><tspan
         sodipodi:role="line"
         id="tspan3733-9-9-49"
         style="stroke-width:0.264583"
         x="95.288887"
         y="238.927">SUPPLY COMPONENTS</tspan></text>
    <text
       xml:space="preserve"
       style="font-style:normal;font-weight:normal;font-size:10.5833px;line-height:1.25;font-family:sans-serif;letter-spacing:0px;word-spacing:0px;display:inline;fill:#000000;fill-opacity:1;stroke:none;stroke-width:0.264583"
       x="318.11237"
       y="211.33109"
       id="text3735-0-1-4-9"
       inkscape:transform-center-x="1.8461432"><tspan
         sodipodi:role="line"
         id="tspan3733-9-9-4-4"
         style="text-align:center;text-anchor:middle;stroke-width:0.264583"
         x="318.11237"
         y="211.33109">SUPPLY</tspan><tspan
         sodipodi:role="line"
         style="text-align:center;text-anchor:middle;stroke-width:0.264583"
         x="318.11237"
         y="224.56021"
         id="tspan99033">MANAGEMENT</tspan></text>
    <rect
       style="display:inline;fill:#a1d38f;fill-opacity:1;stroke:#00110f;stroke-width:0.365046;stroke-linejoin:round;stroke-opacity:0.884574"
       id="rect1011-0-5-5-25-0"
       width="90.77877"
       height="41.567398"
       x="273.0806"
       y="-180.77464"
       rx="0"
       ry="0"
       transform="scale(1,-1)" />
    <text
       xml:space="preserve"
       style="font-style:normal;font-weight:normal;font-size:10.5833px;line-height:1.25;font-family:sans-serif;letter-spacing:0px;word-spacing:0px;display:inline;fill:#000000;fill-opacity:1;stroke:none;stroke-width:0.264583"
       x="317.9407"
       y="156.6174"
       id="text3735-0-1-4-9-5"
       inkscape:transform-center-x="1.8461432"><tspan
         sodipodi:role="line"
         id="tspan3733-9-9-4-4-6"
         style="text-align:center;text-anchor:middle;stroke-width:0.264583"
         x="317.9407"
         y="156.6174">SUPPLY</tspan><tspan
         sodipodi:role="line"
         style="text-align:center;text-anchor:middle;stroke-width:0.264583"
         x="317.9407"
         y="169.84653"
         id="tspan99033-6">DEFINITION</tspan></text>
    <path
       d="m 262.95853,132.70779 v 1.96691 h -4.37131 -4.37132 v 3.3637 3.36371 h 4.37132 4.37131 v 1.96691 1.96691 l 0.19176,-0.002 0.19176,-0.003 1.88049,-3.58491 c 1.84853,-3.52562 1.87946,-3.58605 1.86399,-3.61456 -0.008,-0.016 -0.85364,-1.68413 -1.87842,-3.70691 l -1.86296,-3.67727 -0.19383,-0.003 -0.19279,-0.002 z m 2.07019,2.46747 c 1.15056,2.2725 1.50728,2.98515 1.50006,2.99883 -0.005,0.0103 -0.70003,1.33636 -1.54543,2.94752 l -1.53511,2.92813 -0.003,-1.59747 -0.002,-1.59748 h -4.37131 -4.37132 v -2.81639 -2.81639 h 4.37132 4.37131 v -1.58835 -1.58721 l 0.0371,0.0741 c 0.0207,0.0411 0.71756,1.41504 1.54852,3.0547 z"
       id="path90282-9-2"
       style="display:inline;fill:#000000;stroke:none;stroke-width:0.00108422" />
    <path
       d="m 112.47606,132.50787 v 1.96691 h -4.3713 -4.37133 v 3.3637 3.36371 h 4.37133 4.3713 v 1.96691 1.96691 l 0.19176,-0.002 0.19176,-0.003 1.88049,-3.58491 c 1.84853,-3.52562 1.87946,-3.58605 1.86399,-3.61456 -0.008,-0.016 -0.85364,-1.68413 -1.87842,-3.70691 l -1.86296,-3.67727 -0.19383,-0.003 -0.19279,-0.002 z m 2.07019,2.46747 c 1.15056,2.2725 1.50728,2.98515 1.50006,2.99883 -0.005,0.0103 -0.70003,1.33636 -1.54543,2.94752 l -1.5351,2.92813 -0.003,-1.59747 -0.002,-1.59748 h -4.37131 -4.37133 v -2.81639 -2.81639 h 4.37133 4.37131 v -1.58835 -1.58721 l 0.0371,0.0741 c 0.0207,0.0411 0.71757,1.41504 1.54852,3.0547 z"
       id="path90282-9-3-9"
       style="display:inline;fill:#000000;stroke:none;stroke-width:0.00108422" />
    <text
       xml:space="preserve"
       style="font-style:normal;font-weight:normal;font-size:10.5833px;line-height:1.25;font-family:sans-serif;letter-spacing:0px;word-spacing:0px;display:inline;fill:#000000;fill-opacity:1;stroke:none;stroke-width:0.264583"
       x="418.28094"
       y="284.42053"
       id="text3735-0-1-9-9"
       inkscape:transform-center-x="1.8461432"><tspan
         sodipodi:role="line"
         id="tspan3733-9-9-9-3"
         style="stroke-width:0.264583"
         x="418.28094"
         y="284.42053">MATURITY MODEL</tspan></text>
    <rect
       style="display:inline;fill:#f6f6f6;fill-opacity:1;stroke:#00110f;stroke-width:0.328277;stroke-linejoin:round;stroke-opacity:0.884574"
       id="rect1011-0-5-5-5-5-9-4"
       width="147.46823"
       height="20.693001"
       x="390.21344"
       y="-265.85544"
       rx="0"
       ry="0"
       transform="scale(1,-1)"
       inkscape:transform-center-x="4.9143991"
       inkscape:transform-center-y="-41.146151" />
    <rect
       style="display:inline;fill:#f6f6f6;fill-opacity:1;stroke:#00110f;stroke-width:0.328277;stroke-linejoin:round;stroke-opacity:0.884574"
       id="rect1011-0-5-5-5-5-9-4-9"
       width="147.46823"
       height="20.693001"
       x="391.2937"
       y="-236.9854"
       rx="0"
       ry="0"
       transform="scale(1,-1)"
       inkscape:transform-center-x="4.9143991"
       inkscape:transform-center-y="-41.146151" />
    <rect
       style="display:inline;fill:#f6f6f6;fill-opacity:1;stroke:#00110f;stroke-width:0.328277;stroke-linejoin:round;stroke-opacity:0.884574"
       id="rect1011-0-5-5-5-5-9-4-9-6"
       width="147.46823"
       height="20.693001"
       x="391.08087"
       y="-207.82184"
       rx="0"
       ry="0"
       transform="scale(1,-1)"
       inkscape:transform-center-x="4.9143991"
       inkscape:transform-center-y="-41.146151" />
    <rect
       style="display:inline;fill:#f6f6f6;fill-opacity:1;stroke:#00110f;stroke-width:0.328277;stroke-linejoin:round;stroke-opacity:0.884574"
       id="rect1011-0-5-5-5-5-9-4-9-6-5"
       width="147.46823"
       height="20.693001"
       x="390.48389"
       y="-178.87425"
       rx="0"
       ry="0"
       transform="scale(1,-1)"
       inkscape:transform-center-x="4.9143991"
       inkscape:transform-center-y="-41.146151" />
    <rect
       style="display:inline;fill:#f6f6f6;fill-opacity:1;stroke:#00110f;stroke-width:0.328277;stroke-linejoin:round;stroke-opacity:0.884574"
       id="rect1011-0-5-5-5-5-9-4-9-6-5-4"
       width="147.46823"
       height="20.693001"
       x="390.77145"
       y="-149.92943"
       rx="0"
       ry="0"
       transform="scale(1,-1)"
       inkscape:transform-center-x="4.9143991"
       inkscape:transform-center-y="-41.146151" />
    <rect
       style="display:inline;fill:#f6f6f6;fill-opacity:1;stroke:#00110f;stroke-width:0.328277;stroke-linejoin:round;stroke-opacity:0.884574"
       id="rect1011-0-5-5-5-5-9-4-9-6-5-4-9"
       width="147.46823"
       height="20.693001"
       x="389.12119"
       y="-121.86734"
       rx="0"
       ry="0"
       transform="scale(1,-1)"
       inkscape:transform-center-x="4.9143991"
       inkscape:transform-center-y="-41.146151" />
    <text
       xml:space="preserve"
       style="display:inline;font-style:normal;font-weight:normal;font-size:10.5833px;line-height:1.25;font-family:sans-serif;letter-spacing:0px;word-spacing:0px;fill:#000000;fill-opacity:1;stroke:none;stroke-width:0.264583"
       x="412.03439"
       y="259.26416"
       id="text3735-0-1-4-2-8-6-1"
       inkscape:transform-center-x="1.8461432"><tspan
         sodipodi:role="line"
         id="tspan3733-9-9-4-6-7-0-0"
         style="stroke-width:0.264583"
         x="412.03439"
         y="259.26416">UNBACKED TOKENS</tspan></text>
    <text
       xml:space="preserve"
       style="display:inline;font-style:normal;font-weight:normal;font-size:10.5833px;line-height:1.25;font-family:sans-serif;letter-spacing:0px;word-spacing:0px;white-space:pre;inline-size:108.254;fill:#000000;fill-opacity:1;stroke:none;stroke-width:0.264583"
       x="375.33167"
       y="119.24981"
       id="text3735-0-1-4-2"
       inkscape:transform-center-x="1.8461432"
       transform="translate(32.969832,26.553756)"><tspan
         x="375.33167"
         y="119.24981"
         id="tspan1086">UNITS OF ACCOUNT</tspan></text>
    <text
       xml:space="preserve"
       style="display:inline;font-style:normal;font-weight:normal;font-size:10.5833px;line-height:1.25;font-family:sans-serif;letter-spacing:0px;word-spacing:0px;white-space:pre;inline-size:108.254;fill:#000000;fill-opacity:1;stroke:none;stroke-width:0.264583"
       x="375.33167"
       y="119.24981"
       id="text3735-0-1-4-2-80"
       inkscape:transform-center-x="1.8461432"
       transform="translate(73.189102,-2.6686054)"><tspan
         x="375.33167"
         y="119.24981"
         id="tspan1088">NFT</tspan></text>
    <text
       xml:space="preserve"
       style="display:inline;font-style:normal;font-weight:normal;font-size:10.5833px;line-height:1.25;font-family:sans-serif;letter-spacing:0px;word-spacing:0px;fill:#000000;fill-opacity:1;stroke:none;stroke-width:0.264583"
       x="400.14832"
       y="173.36198"
       id="text3735-0-1-4-2-8"
       inkscape:transform-center-x="1.8461432"><tspan
         sodipodi:role="line"
         id="tspan3733-9-9-4-6-7"
         style="stroke-width:0.264583"
         x="400.14832"
         y="173.36198">STABLECOINS / SYNTHS</tspan></text>
    <text
       xml:space="preserve"
       style="display:inline;font-style:normal;font-weight:normal;font-size:10.5833px;line-height:1.25;font-family:sans-serif;letter-spacing:0px;word-spacing:0px;fill:#000000;fill-opacity:1;stroke:none;stroke-width:0.264583"
       x="411.56412"
       y="201.68135"
       id="text3735-0-1-4-2-8-0"
       inkscape:transform-center-x="1.8461432"><tspan
         sodipodi:role="line"
         id="tspan3733-9-9-4-6-7-5"
         style="stroke-width:0.264583"
         x="411.56412"
         y="201.68135">SECURITY TOKENS</tspan></text>
    <text
       xml:space="preserve"
       style="display:inline;font-style:normal;font-weight:normal;font-size:10.5833px;line-height:1.25;font-family:sans-serif;letter-spacing:0px;word-spacing:0px;fill:#000000;fill-opacity:1;stroke:none;stroke-width:0.264583"
       x="462.95807"
       y="229.36385"
       id="text3735-0-1-4-2-8-6"
       inkscape:transform-center-x="1.8461432"><tspan
         sodipodi:role="line"
         style="text-align:center;text-anchor:middle;stroke-width:0.264583"
         x="462.95807"
         y="229.36385"
         id="tspan81360">UTILITY BACKED TOKENS</tspan></text>
  </g>
</svg>
